<svg width="45" height="45" viewBox="0 0 45 45" fill="none" xmlns="http://www.w3.org/2000/svg">
<rect x="0.783203" y="0.269531" width="43.8687" height="43.8687" rx="10" fill="#00979A"/>
<path d="M27.2383 31.1834L27.2383 26.791H31.794C33.2398 26.8355 33.9069 28.0622 33.9069 28.7568V33.4806H29.5013C27.831 33.4806 27.2383 32.1425 27.2383 31.1834Z" fill="white"/>
<path d="M19.5757 31.8051L22.6816 28.6992L25.903 31.9206C26.894 32.9744 26.4983 34.3135 26.0071 34.8047L22.6669 38.1449L19.5516 35.0297C18.3705 33.8486 18.8976 32.4833 19.5757 31.8051Z" fill="#82DFB5"/>
<path d="M13.7111 26.8125L18.1035 26.8125L18.1035 31.3682C18.0591 32.8141 16.8324 33.4812 16.1378 33.4812L11.414 33.4812L11.414 29.0756C11.414 27.4052 12.7521 26.8125 13.7111 26.8125Z" fill="white"/>
<path d="M13.1089 19.1246L16.2148 22.2305L12.9935 25.4518C11.9397 26.4428 10.6005 26.0471 10.1094 25.5559L6.76915 22.2157L9.88439 19.1005C11.0655 17.9194 12.4308 18.4464 13.1089 19.1246Z" fill="#82DFB5"/>
<path d="M18.0938 13.2755L18.0937 17.668L13.5381 17.668C12.0922 17.6235 11.4251 16.3968 11.4251 15.7022L11.4251 10.9784L15.8307 10.9784C17.501 10.9784 18.0938 12.3165 18.0938 13.2755Z" fill="white"/>
<path d="M25.7739 12.6011L22.668 15.707L19.4466 12.4857C18.4557 11.4319 18.8514 10.0927 19.3425 9.60157L22.6827 6.26134L25.798 9.37658C26.9791 10.5577 26.452 11.923 25.7739 12.6011Z" fill="#82DFB5"/>
<path d="M31.6229 17.6543L27.2305 17.6543L27.2305 13.0986C27.2749 11.6527 28.5016 10.9856 29.1962 10.9856L33.92 10.9856L33.92 15.3912C33.92 17.0616 32.5819 17.6543 31.6229 17.6543Z" fill="white"/>
<path d="M32.3247 25.3227L29.2188 22.2168L32.4401 18.9954C33.4939 18.0045 34.8331 18.4002 35.3242 18.8913L38.6644 22.2316L35.5492 25.3468C34.3681 26.5279 33.0028 26.0008 32.3247 25.3227Z" fill="#82DFB5"/>
</svg>
