<svg width="78" height="76" viewBox="0 0 78 76" fill="none" xmlns="http://www.w3.org/2000/svg">
<path fill-rule="evenodd" clip-rule="evenodd" d="M54.7598 61.5095C53.6357 60.238 52.5488 58.9522 51.4686 57.5658C51.1523 57.2136 50.8432 56.8544 50.5341 56.4953L50.5338 56.4949C49.8069 55.6504 49.0802 54.8061 48.2616 54.054C46.0427 52.0154 43.6096 50.3229 41.1689 48.625C40.6943 48.2949 40.2194 47.9645 39.7457 47.6314C39.6176 48.3764 39.496 49.1245 39.389 49.8777C39.3209 50.5217 39.2343 51.1608 39.1479 51.798C38.9593 53.1887 38.772 54.5707 38.7807 55.976C38.7976 58.6922 39.3506 61.3486 39.9072 64.0229C39.9635 64.293 40.0197 64.5632 40.0755 64.8337C40.6844 67.7887 41.9512 68.9424 41.9512 71.9601C41.9512 76.7968 37.0386 75.9242 36.4709 75.6818C36.464 75.6788 36.4565 75.6756 36.4485 75.6723L36.4148 75.6584C35.9911 75.4831 34.5908 74.9039 34.1976 73.0353C34.1047 72.5941 34.0062 70.8153 34.0053 70.7272L33.9937 65.6075C33.9097 63.924 33.9653 62.2558 34.0208 60.5898C34.0709 59.0857 34.1209 57.5833 34.0681 56.073C34.0214 54.7369 33.8402 53.424 33.658 52.1042C33.5561 51.3659 33.4539 50.6255 33.3748 49.8777C33.2483 48.987 33.0993 48.1037 32.9422 47.2243C32.2936 47.6502 31.644 48.0693 30.9962 48.4871C28.1535 50.3208 25.3482 52.1304 22.84 54.3855C20.7603 56.2552 19.145 58.5606 17.5855 60.9134C16.1275 63.1132 15.0202 65.5162 14.0358 68.1417C13.0596 70.0747 10.6975 70.8516 8.76446 69.8753C6.83138 68.8991 6.05462 66.537 7.0308 64.604C9.9142 60.0589 13.5023 56.6334 17.1287 53.1713C17.226 53.0785 17.3232 52.9856 17.4205 52.8927C18.969 51.4139 20.4864 49.9056 21.9392 48.3215C24.1317 45.9308 26.1264 43.4426 28.0875 40.8404C25.8612 40.4664 23.6259 40.1401 21.3439 40.1042C19.2467 40.0712 17.1691 40.331 15.089 40.5912L15.0882 40.5913C14.4169 40.6753 13.7452 40.7592 13.0726 40.8334C11.2933 41.0297 9.544 41.275 7.78848 41.5211C6.79753 41.66 5.80459 41.7992 4.80316 41.93C2.63774 41.9572 0.857594 40.2213 0.830393 38.0558C0.803193 35.8904 2.53913 34.1102 4.70454 34.083C5.5614 34.1732 6.41234 34.2689 7.26126 34.3644L7.26157 34.3644C9.16054 34.578 11.0495 34.7905 12.9722 34.9366C13.5899 34.9835 14.2072 35.0382 14.8243 35.0928C16.9608 35.2818 19.0952 35.4706 21.2364 35.3401C23.2403 35.218 25.1936 34.8616 27.1323 34.4367C27.0218 34.2874 26.9106 34.1383 26.7984 33.9896C26.517 33.6452 26.2034 33.221 25.85 32.7431C24.9902 31.5803 23.8949 30.0988 22.4538 28.6714C19.411 25.6571 15.3576 22.6911 12.4761 20.5827C11.4698 19.8464 10.6065 19.2146 9.97899 18.7219C8.41139 17.2278 8.35177 14.742 9.84593 13.1744C11.3401 11.6068 13.8259 11.5472 15.3934 13.0414C15.9911 13.7316 16.7755 14.7268 17.6923 15.8899C19.8842 18.6708 22.8327 22.4115 25.793 25.238C27.2613 26.6399 28.7732 27.6952 29.9594 28.5232C30.4455 28.8625 30.8771 29.1637 31.2284 29.4349C31.6431 29.73 32.0605 30.0175 32.479 30.3004C32.6574 29.4386 32.8533 28.5852 33.0491 27.7322C33.4591 25.946 33.8687 24.1613 34.1165 22.3042C34.2224 21.5106 34.2495 20.7098 34.2767 19.9087C34.2923 19.4474 34.3079 18.9859 34.3386 18.5258L34.1782 9.68272L34.1397 4.62009C34.2772 2.45889 36.1435 0.815835 38.3048 0.953352C40.466 1.09087 42.1091 2.95716 41.9716 5.11845L40.6844 10.4717L39.22 18.784C39.2054 19.1559 39.1827 19.5279 39.1601 19.9L39.1601 19.9003C39.1074 20.7649 39.0547 21.6297 39.1039 22.493C39.2151 24.441 39.5596 26.3134 39.9228 28.1891L42.354 25.7758C42.5576 25.5495 42.9344 25.1981 43.4307 24.7351C44.4342 23.7989 45.9268 22.4066 47.4668 20.67C50.2987 17.4764 53.3663 13.2869 55.5133 10.3547C56.3694 9.18554 57.0791 8.21628 57.5691 7.58973C59.0561 6.0154 61.5417 5.94458 63.116 7.43167C64.6902 8.91868 64.7611 11.4042 63.274 12.9785C62.7613 13.4289 62.0065 14.0587 61.0986 14.8164C58.3115 17.1422 54.0816 20.672 50.9815 23.9091C48.9629 26.0168 47.545 28.0293 46.8925 28.9555C46.808 29.0753 46.7364 29.177 46.6779 29.2584C45.9704 30.4553 45.3224 31.6723 44.6863 32.8918C45.7805 33.0124 46.8671 33.1469 47.9568 33.2818C49.2385 33.4404 50.5244 33.5996 51.8314 33.7373C52.2101 33.7485 52.5885 33.7628 52.9666 33.7771L52.9674 33.7772C56.5974 33.9149 59.9264 33.4418 63.458 32.6028C64.5312 32.3478 65.6053 32.0926 66.6893 31.8792L73.5751 30.5208C75.7227 30.2422 77.6924 31.7597 77.971 33.9074C78.2495 36.055 76.732 38.0247 74.5844 38.3032L67.4014 38.0061C66.5249 38.0386 65.649 38.0574 64.7738 38.0763L64.7732 38.0763C61.4652 38.1475 58.233 38.3498 54.9832 38.9733C54.0384 39.1546 53.0932 39.336 52.1353 39.4665C51.2174 39.6631 50.3103 39.8653 49.4073 40.0666L49.4069 40.0667C47.8009 40.4248 46.2078 40.78 44.5908 41.095C45.4173 42.2021 46.2128 43.3265 47.0084 44.451C48.5119 46.5763 50.0159 48.7021 51.7298 50.7125C52.3903 51.4872 53.1223 52.1961 53.8549 52.9055C54.2817 53.3189 54.7088 53.7324 55.1219 54.1592C56.5623 55.4506 57.9558 56.6582 59.4794 57.7402C60.4384 58.4213 61.4581 58.9736 62.5383 59.5312C62.6658 59.5961 65.0571 61.1844 65.9287 61.9319C67.3586 63.1585 67.3612 64.6602 67.3617 64.9868C67.3618 64.9991 67.3618 65.0097 67.3619 65.0186C67.3619 67.1842 65.6037 68.9424 63.438 68.9424C59.5128 68.9424 59.1645 66.4919 54.7598 61.5095Z" fill="#DAEDE6"/>
</svg>
