<svg width="652" height="558" viewBox="0 0 652 558" fill="none" xmlns="http://www.w3.org/2000/svg">
<g opacity="0.15">
<mask id="mask0_1955_6566" style="mask-type:alpha" maskUnits="userSpaceOnUse" x="0" y="0" width="652" height="558">
<circle cx="648.923" cy="555.005" r="2.4753" transform="rotate(180 648.923 555.005)" fill="white"/>
<circle cx="648.923" cy="547.579" r="2.4753" transform="rotate(180 648.923 547.579)" fill="white"/>
<circle cx="648.923" cy="540.154" r="2.4753" transform="rotate(180 648.923 540.154)" fill="white"/>
<circle cx="648.923" cy="532.728" r="2.4753" transform="rotate(180 648.923 532.728)" fill="white"/>
<circle cx="648.923" cy="525.302" r="2.4753" transform="rotate(180 648.923 525.302)" fill="white"/>
<circle cx="648.923" cy="517.876" r="2.4753" transform="rotate(180 648.923 517.876)" fill="white"/>
<circle cx="648.923" cy="510.45" r="2.4753" transform="rotate(180 648.923 510.45)" fill="white"/>
<circle cx="648.923" cy="503.021" r="2.4753" transform="rotate(180 648.923 503.021)" fill="white"/>
<circle cx="648.923" cy="495.595" r="2.4753" transform="rotate(180 648.923 495.595)" fill="white"/>
<circle cx="648.923" cy="488.173" r="2.4753" transform="rotate(180 648.923 488.173)" fill="white"/>
<circle cx="640.259" cy="555.005" r="2.4753" transform="rotate(180 640.259 555.005)" fill="white"/>
<circle cx="640.259" cy="547.579" r="2.4753" transform="rotate(180 640.259 547.579)" fill="white"/>
<circle cx="640.259" cy="540.154" r="2.4753" transform="rotate(180 640.259 540.154)" fill="white"/>
<circle cx="640.259" cy="532.728" r="2.4753" transform="rotate(180 640.259 532.728)" fill="white"/>
<circle cx="640.259" cy="525.302" r="2.4753" transform="rotate(180 640.259 525.302)" fill="white"/>
<circle cx="640.259" cy="517.876" r="2.4753" transform="rotate(180 640.259 517.876)" fill="white"/>
<circle cx="640.259" cy="510.45" r="2.4753" transform="rotate(180 640.259 510.45)" fill="white"/>
<circle cx="640.259" cy="503.021" r="2.4753" transform="rotate(180 640.259 503.021)" fill="white"/>
<circle cx="640.259" cy="495.595" r="2.4753" transform="rotate(180 640.259 495.595)" fill="white"/>
<circle cx="640.259" cy="488.173" r="2.4753" transform="rotate(180 640.259 488.173)" fill="white"/>
<circle cx="631.595" cy="555.005" r="2.4753" transform="rotate(180 631.595 555.005)" fill="white"/>
<circle cx="631.595" cy="547.579" r="2.4753" transform="rotate(180 631.595 547.579)" fill="white"/>
<circle cx="631.595" cy="540.154" r="2.4753" transform="rotate(180 631.595 540.154)" fill="white"/>
<circle cx="631.595" cy="532.728" r="2.4753" transform="rotate(180 631.595 532.728)" fill="white"/>
<circle cx="631.595" cy="525.302" r="2.4753" transform="rotate(180 631.595 525.302)" fill="white"/>
<circle cx="631.595" cy="517.876" r="2.4753" transform="rotate(180 631.595 517.876)" fill="white"/>
<circle cx="631.595" cy="510.45" r="2.4753" transform="rotate(180 631.595 510.45)" fill="white"/>
<circle cx="631.595" cy="503.021" r="2.4753" transform="rotate(180 631.595 503.021)" fill="white"/>
<circle cx="631.595" cy="495.595" r="2.4753" transform="rotate(180 631.595 495.595)" fill="white"/>
<circle cx="631.595" cy="488.173" r="2.4753" transform="rotate(180 631.595 488.173)" fill="white"/>
<circle cx="622.931" cy="555.005" r="2.4753" transform="rotate(180 622.931 555.005)" fill="white"/>
<circle cx="622.931" cy="547.579" r="2.4753" transform="rotate(180 622.931 547.579)" fill="white"/>
<circle cx="622.931" cy="540.154" r="2.4753" transform="rotate(180 622.931 540.154)" fill="white"/>
<circle cx="622.931" cy="532.728" r="2.4753" transform="rotate(180 622.931 532.728)" fill="white"/>
<circle cx="622.931" cy="525.302" r="2.4753" transform="rotate(180 622.931 525.302)" fill="white"/>
<circle cx="622.931" cy="517.876" r="2.4753" transform="rotate(180 622.931 517.876)" fill="white"/>
<circle cx="622.931" cy="510.45" r="2.4753" transform="rotate(180 622.931 510.45)" fill="white"/>
<circle cx="622.931" cy="503.021" r="2.4753" transform="rotate(180 622.931 503.021)" fill="white"/>
<circle cx="622.931" cy="495.595" r="2.4753" transform="rotate(180 622.931 495.595)" fill="white"/>
<circle cx="622.931" cy="488.173" r="2.4753" transform="rotate(180 622.931 488.173)" fill="white"/>
<circle cx="614.267" cy="555.005" r="2.4753" transform="rotate(180 614.267 555.005)" fill="white"/>
<circle cx="614.267" cy="547.579" r="2.4753" transform="rotate(180 614.267 547.579)" fill="white"/>
<circle cx="614.267" cy="540.154" r="2.4753" transform="rotate(180 614.267 540.154)" fill="white"/>
<circle cx="614.267" cy="532.728" r="2.4753" transform="rotate(180 614.267 532.728)" fill="white"/>
<circle cx="614.267" cy="525.302" r="2.4753" transform="rotate(180 614.267 525.302)" fill="white"/>
<circle cx="614.267" cy="517.876" r="2.4753" transform="rotate(180 614.267 517.876)" fill="white"/>
<circle cx="614.267" cy="510.45" r="2.4753" transform="rotate(180 614.267 510.45)" fill="white"/>
<circle cx="614.267" cy="503.021" r="2.4753" transform="rotate(180 614.267 503.021)" fill="white"/>
<circle cx="614.267" cy="495.595" r="2.4753" transform="rotate(180 614.267 495.595)" fill="white"/>
<circle cx="614.267" cy="488.173" r="2.4753" transform="rotate(180 614.267 488.173)" fill="white"/>
<circle cx="605.603" cy="555.005" r="2.4753" transform="rotate(180 605.603 555.005)" fill="white"/>
<circle cx="605.603" cy="547.579" r="2.4753" transform="rotate(180 605.603 547.579)" fill="white"/>
<circle cx="605.603" cy="540.154" r="2.4753" transform="rotate(180 605.603 540.154)" fill="white"/>
<circle cx="605.603" cy="532.728" r="2.4753" transform="rotate(180 605.603 532.728)" fill="white"/>
<circle cx="605.603" cy="525.302" r="2.4753" transform="rotate(180 605.603 525.302)" fill="white"/>
<circle cx="605.603" cy="517.876" r="2.4753" transform="rotate(180 605.603 517.876)" fill="white"/>
<circle cx="605.603" cy="510.45" r="2.4753" transform="rotate(180 605.603 510.45)" fill="white"/>
<circle cx="605.603" cy="503.021" r="2.4753" transform="rotate(180 605.603 503.021)" fill="white"/>
<circle cx="605.603" cy="495.595" r="2.4753" transform="rotate(180 605.603 495.595)" fill="white"/>
<circle cx="605.603" cy="488.173" r="2.4753" transform="rotate(180 605.603 488.173)" fill="white"/>
<circle cx="596.939" cy="555.005" r="2.4753" transform="rotate(180 596.939 555.005)" fill="white"/>
<circle cx="596.939" cy="547.579" r="2.4753" transform="rotate(180 596.939 547.579)" fill="white"/>
<circle cx="596.939" cy="540.154" r="2.4753" transform="rotate(180 596.939 540.154)" fill="white"/>
<circle cx="596.939" cy="532.728" r="2.4753" transform="rotate(180 596.939 532.728)" fill="white"/>
<circle cx="596.939" cy="525.302" r="2.4753" transform="rotate(180 596.939 525.302)" fill="white"/>
<circle cx="596.939" cy="517.876" r="2.4753" transform="rotate(180 596.939 517.876)" fill="white"/>
<circle cx="596.939" cy="510.45" r="2.4753" transform="rotate(180 596.939 510.45)" fill="white"/>
<circle cx="596.939" cy="503.021" r="2.4753" transform="rotate(180 596.939 503.021)" fill="white"/>
<circle cx="596.939" cy="495.595" r="2.4753" transform="rotate(180 596.939 495.595)" fill="white"/>
<circle cx="596.939" cy="488.173" r="2.4753" transform="rotate(180 596.939 488.173)" fill="white"/>
<circle cx="588.283" cy="555.005" r="2.4753" transform="rotate(180 588.283 555.005)" fill="white"/>
<circle cx="588.283" cy="547.579" r="2.4753" transform="rotate(180 588.283 547.579)" fill="white"/>
<circle cx="588.283" cy="547.579" r="2.4753" transform="rotate(180 588.283 547.579)" fill="white"/>
<circle cx="588.283" cy="547.579" r="2.4753" transform="rotate(180 588.283 547.579)" fill="white"/>
<circle cx="588.283" cy="547.579" r="2.4753" transform="rotate(180 588.283 547.579)" fill="white"/>
<circle cx="588.283" cy="547.579" r="2.4753" transform="rotate(180 588.283 547.579)" fill="white"/>
<circle cx="588.283" cy="547.579" r="2.4753" transform="rotate(180 588.283 547.579)" fill="white"/>
<circle cx="588.283" cy="540.154" r="2.4753" transform="rotate(180 588.283 540.154)" fill="white"/>
<circle cx="588.283" cy="532.728" r="2.4753" transform="rotate(180 588.283 532.728)" fill="white"/>
<circle cx="588.283" cy="525.302" r="2.4753" transform="rotate(180 588.283 525.302)" fill="white"/>
<circle cx="588.283" cy="517.876" r="2.4753" transform="rotate(180 588.283 517.876)" fill="white"/>
<circle cx="588.283" cy="510.45" r="2.4753" transform="rotate(180 588.283 510.45)" fill="white"/>
<circle cx="588.283" cy="503.021" r="2.4753" transform="rotate(180 588.283 503.021)" fill="white"/>
<circle cx="588.283" cy="495.595" r="2.4753" transform="rotate(180 588.283 495.595)" fill="white"/>
<circle cx="588.283" cy="488.173" r="2.4753" transform="rotate(180 588.283 488.173)" fill="white"/>
<circle cx="579.618" cy="555.005" r="2.4753" transform="rotate(180 579.618 555.005)" fill="white"/>
<circle cx="579.618" cy="547.579" r="2.4753" transform="rotate(180 579.618 547.579)" fill="white"/>
<circle cx="579.618" cy="540.154" r="2.4753" transform="rotate(180 579.618 540.154)" fill="white"/>
<circle cx="579.618" cy="532.728" r="2.4753" transform="rotate(180 579.618 532.728)" fill="white"/>
<circle cx="579.618" cy="525.302" r="2.4753" transform="rotate(180 579.618 525.302)" fill="white"/>
<circle cx="579.618" cy="517.876" r="2.4753" transform="rotate(180 579.618 517.876)" fill="white"/>
<circle cx="579.618" cy="510.45" r="2.4753" transform="rotate(180 579.618 510.45)" fill="white"/>
<circle cx="579.618" cy="503.021" r="2.4753" transform="rotate(180 579.618 503.021)" fill="white"/>
<circle cx="579.618" cy="495.595" r="2.4753" transform="rotate(180 579.618 495.595)" fill="white"/>
<circle cx="579.618" cy="488.173" r="2.4753" transform="rotate(180 579.618 488.173)" fill="white"/>
<circle cx="570.947" cy="555.005" r="2.4753" transform="rotate(180 570.947 555.005)" fill="white"/>
<circle cx="570.947" cy="547.579" r="2.4753" transform="rotate(180 570.947 547.579)" fill="white"/>
<circle cx="570.947" cy="540.154" r="2.4753" transform="rotate(180 570.947 540.154)" fill="white"/>
<circle cx="570.947" cy="532.728" r="2.4753" transform="rotate(180 570.947 532.728)" fill="white"/>
<circle cx="570.947" cy="525.302" r="2.4753" transform="rotate(180 570.947 525.302)" fill="white"/>
<circle cx="570.947" cy="517.876" r="2.4753" transform="rotate(180 570.947 517.876)" fill="white"/>
<circle cx="570.947" cy="510.45" r="2.4753" transform="rotate(180 570.947 510.45)" fill="white"/>
<circle cx="570.947" cy="503.021" r="2.4753" transform="rotate(180 570.947 503.021)" fill="white"/>
<circle cx="570.947" cy="495.595" r="2.4753" transform="rotate(180 570.947 495.595)" fill="white"/>
<circle cx="570.947" cy="488.173" r="2.4753" transform="rotate(180 570.947 488.173)" fill="white"/>
<circle cx="648.923" cy="481.896" r="2.4753" transform="rotate(180 648.923 481.896)" fill="white"/>
<circle cx="648.923" cy="474.47" r="2.4753" transform="rotate(180 648.923 474.47)" fill="white"/>
<circle cx="648.923" cy="467.044" r="2.4753" transform="rotate(180 648.923 467.044)" fill="white"/>
<circle cx="648.923" cy="459.618" r="2.4753" transform="rotate(180 648.923 459.618)" fill="white"/>
<circle cx="648.923" cy="452.193" r="2.4753" transform="rotate(180 648.923 452.193)" fill="white"/>
<circle cx="648.923" cy="444.767" r="2.4753" transform="rotate(180 648.923 444.767)" fill="white"/>
<circle cx="648.923" cy="437.341" r="2.4753" transform="rotate(180 648.923 437.341)" fill="white"/>
<circle cx="648.923" cy="429.911" r="2.4753" transform="rotate(180 648.923 429.911)" fill="white"/>
<circle cx="648.923" cy="422.486" r="2.4753" transform="rotate(180 648.923 422.486)" fill="white"/>
<circle cx="648.923" cy="415.064" r="2.4753" transform="rotate(180 648.923 415.064)" fill="white"/>
<circle cx="640.259" cy="481.896" r="2.4753" transform="rotate(180 640.259 481.896)" fill="white"/>
<circle cx="640.259" cy="474.47" r="2.4753" transform="rotate(180 640.259 474.47)" fill="white"/>
<circle cx="640.259" cy="467.044" r="2.4753" transform="rotate(180 640.259 467.044)" fill="white"/>
<circle cx="640.259" cy="459.618" r="2.4753" transform="rotate(180 640.259 459.618)" fill="white"/>
<circle cx="640.259" cy="452.193" r="2.4753" transform="rotate(180 640.259 452.193)" fill="white"/>
<circle cx="640.259" cy="444.767" r="2.4753" transform="rotate(180 640.259 444.767)" fill="white"/>
<circle cx="640.259" cy="437.341" r="2.4753" transform="rotate(180 640.259 437.341)" fill="white"/>
<circle cx="640.259" cy="429.911" r="2.4753" transform="rotate(180 640.259 429.911)" fill="white"/>
<circle cx="640.259" cy="422.486" r="2.4753" transform="rotate(180 640.259 422.486)" fill="white"/>
<circle cx="640.259" cy="415.064" r="2.4753" transform="rotate(180 640.259 415.064)" fill="white"/>
<circle cx="631.595" cy="481.896" r="2.4753" transform="rotate(180 631.595 481.896)" fill="white"/>
<circle cx="631.595" cy="474.47" r="2.4753" transform="rotate(180 631.595 474.47)" fill="white"/>
<circle cx="631.595" cy="467.044" r="2.4753" transform="rotate(180 631.595 467.044)" fill="white"/>
<circle cx="631.595" cy="459.618" r="2.4753" transform="rotate(180 631.595 459.618)" fill="white"/>
<circle cx="631.595" cy="452.193" r="2.4753" transform="rotate(180 631.595 452.193)" fill="white"/>
<circle cx="631.595" cy="444.767" r="2.4753" transform="rotate(180 631.595 444.767)" fill="white"/>
<circle cx="631.595" cy="437.341" r="2.4753" transform="rotate(180 631.595 437.341)" fill="white"/>
<circle cx="631.595" cy="429.911" r="2.4753" transform="rotate(180 631.595 429.911)" fill="white"/>
<circle cx="631.595" cy="422.486" r="2.4753" transform="rotate(180 631.595 422.486)" fill="white"/>
<circle cx="631.595" cy="415.064" r="2.4753" transform="rotate(180 631.595 415.064)" fill="white"/>
<circle cx="622.931" cy="481.896" r="2.4753" transform="rotate(180 622.931 481.896)" fill="white"/>
<circle cx="622.931" cy="474.47" r="2.4753" transform="rotate(180 622.931 474.47)" fill="white"/>
<circle cx="622.931" cy="467.044" r="2.4753" transform="rotate(180 622.931 467.044)" fill="white"/>
<circle cx="622.931" cy="459.618" r="2.4753" transform="rotate(180 622.931 459.618)" fill="white"/>
<circle cx="622.931" cy="452.193" r="2.4753" transform="rotate(180 622.931 452.193)" fill="white"/>
<circle cx="622.931" cy="444.767" r="2.4753" transform="rotate(180 622.931 444.767)" fill="white"/>
<circle cx="622.931" cy="437.341" r="2.4753" transform="rotate(180 622.931 437.341)" fill="white"/>
<circle cx="622.931" cy="429.911" r="2.4753" transform="rotate(180 622.931 429.911)" fill="white"/>
<circle cx="622.931" cy="422.486" r="2.4753" transform="rotate(180 622.931 422.486)" fill="white"/>
<circle cx="622.931" cy="415.064" r="2.4753" transform="rotate(180 622.931 415.064)" fill="white"/>
<circle cx="614.267" cy="481.896" r="2.4753" transform="rotate(180 614.267 481.896)" fill="white"/>
<circle cx="614.267" cy="474.47" r="2.4753" transform="rotate(180 614.267 474.47)" fill="white"/>
<circle cx="614.267" cy="467.044" r="2.4753" transform="rotate(180 614.267 467.044)" fill="white"/>
<circle cx="614.267" cy="459.618" r="2.4753" transform="rotate(180 614.267 459.618)" fill="white"/>
<circle cx="614.267" cy="452.193" r="2.4753" transform="rotate(180 614.267 452.193)" fill="white"/>
<circle cx="614.267" cy="444.767" r="2.4753" transform="rotate(180 614.267 444.767)" fill="white"/>
<circle cx="614.267" cy="437.341" r="2.4753" transform="rotate(180 614.267 437.341)" fill="white"/>
<circle cx="614.267" cy="429.911" r="2.4753" transform="rotate(180 614.267 429.911)" fill="white"/>
<circle cx="614.267" cy="422.486" r="2.4753" transform="rotate(180 614.267 422.486)" fill="white"/>
<circle cx="614.267" cy="415.064" r="2.4753" transform="rotate(180 614.267 415.064)" fill="white"/>
<circle cx="605.603" cy="481.896" r="2.4753" transform="rotate(180 605.603 481.896)" fill="white"/>
<circle cx="605.603" cy="474.47" r="2.4753" transform="rotate(180 605.603 474.47)" fill="white"/>
<circle cx="605.603" cy="467.044" r="2.4753" transform="rotate(180 605.603 467.044)" fill="white"/>
<circle cx="605.603" cy="459.618" r="2.4753" transform="rotate(180 605.603 459.618)" fill="white"/>
<circle cx="605.603" cy="452.193" r="2.4753" transform="rotate(180 605.603 452.193)" fill="white"/>
<circle cx="605.603" cy="444.767" r="2.4753" transform="rotate(180 605.603 444.767)" fill="white"/>
<circle cx="605.603" cy="437.341" r="2.4753" transform="rotate(180 605.603 437.341)" fill="white"/>
<circle cx="605.603" cy="429.911" r="2.4753" transform="rotate(180 605.603 429.911)" fill="white"/>
<circle cx="605.603" cy="422.486" r="2.4753" transform="rotate(180 605.603 422.486)" fill="white"/>
<circle cx="605.603" cy="415.064" r="2.4753" transform="rotate(180 605.603 415.064)" fill="white"/>
<circle cx="596.939" cy="481.896" r="2.4753" transform="rotate(180 596.939 481.896)" fill="white"/>
<circle cx="596.939" cy="474.47" r="2.4753" transform="rotate(180 596.939 474.47)" fill="white"/>
<circle cx="596.939" cy="467.044" r="2.4753" transform="rotate(180 596.939 467.044)" fill="white"/>
<circle cx="596.939" cy="459.618" r="2.4753" transform="rotate(180 596.939 459.618)" fill="white"/>
<circle cx="596.939" cy="452.193" r="2.4753" transform="rotate(180 596.939 452.193)" fill="white"/>
<circle cx="596.939" cy="444.767" r="2.4753" transform="rotate(180 596.939 444.767)" fill="white"/>
<circle cx="596.939" cy="437.341" r="2.4753" transform="rotate(180 596.939 437.341)" fill="white"/>
<circle cx="596.939" cy="429.911" r="2.4753" transform="rotate(180 596.939 429.911)" fill="white"/>
<circle cx="596.939" cy="422.486" r="2.4753" transform="rotate(180 596.939 422.486)" fill="white"/>
<circle cx="596.939" cy="415.064" r="2.4753" transform="rotate(180 596.939 415.064)" fill="white"/>
<circle cx="588.283" cy="481.896" r="2.4753" transform="rotate(180 588.283 481.896)" fill="white"/>
<circle cx="588.283" cy="474.47" r="2.4753" transform="rotate(180 588.283 474.47)" fill="white"/>
<circle cx="588.283" cy="474.47" r="2.4753" transform="rotate(180 588.283 474.47)" fill="white"/>
<circle cx="588.283" cy="474.47" r="2.4753" transform="rotate(180 588.283 474.47)" fill="white"/>
<circle cx="588.283" cy="474.47" r="2.4753" transform="rotate(180 588.283 474.47)" fill="white"/>
<circle cx="588.283" cy="474.47" r="2.4753" transform="rotate(180 588.283 474.47)" fill="white"/>
<circle cx="588.283" cy="474.47" r="2.4753" transform="rotate(180 588.283 474.47)" fill="white"/>
<circle cx="588.283" cy="467.044" r="2.4753" transform="rotate(180 588.283 467.044)" fill="white"/>
<circle cx="588.283" cy="459.618" r="2.4753" transform="rotate(180 588.283 459.618)" fill="white"/>
<circle cx="588.283" cy="452.193" r="2.4753" transform="rotate(180 588.283 452.193)" fill="white"/>
<circle cx="588.283" cy="444.767" r="2.4753" transform="rotate(180 588.283 444.767)" fill="white"/>
<circle cx="588.283" cy="437.341" r="2.4753" transform="rotate(180 588.283 437.341)" fill="white"/>
<circle cx="588.283" cy="429.911" r="2.4753" transform="rotate(180 588.283 429.911)" fill="white"/>
<circle cx="588.283" cy="422.486" r="2.4753" transform="rotate(180 588.283 422.486)" fill="white"/>
<circle cx="588.283" cy="415.064" r="2.4753" transform="rotate(180 588.283 415.064)" fill="white"/>
<circle cx="579.618" cy="481.896" r="2.4753" transform="rotate(180 579.618 481.896)" fill="white"/>
<circle cx="579.618" cy="474.47" r="2.4753" transform="rotate(180 579.618 474.47)" fill="white"/>
<circle cx="579.618" cy="467.044" r="2.4753" transform="rotate(180 579.618 467.044)" fill="white"/>
<circle cx="579.618" cy="459.618" r="2.4753" transform="rotate(180 579.618 459.618)" fill="white"/>
<circle cx="579.618" cy="452.193" r="2.4753" transform="rotate(180 579.618 452.193)" fill="white"/>
<circle cx="579.618" cy="444.767" r="2.4753" transform="rotate(180 579.618 444.767)" fill="white"/>
<circle cx="579.618" cy="437.341" r="2.4753" transform="rotate(180 579.618 437.341)" fill="white"/>
<circle cx="579.618" cy="429.911" r="2.4753" transform="rotate(180 579.618 429.911)" fill="white"/>
<circle cx="579.618" cy="422.486" r="2.4753" transform="rotate(180 579.618 422.486)" fill="white"/>
<circle cx="579.618" cy="415.064" r="2.4753" transform="rotate(180 579.618 415.064)" fill="white"/>
<circle cx="570.947" cy="481.896" r="2.4753" transform="rotate(180 570.947 481.896)" fill="white"/>
<circle cx="570.947" cy="474.47" r="2.4753" transform="rotate(180 570.947 474.47)" fill="white"/>
<circle cx="570.947" cy="467.044" r="2.4753" transform="rotate(180 570.947 467.044)" fill="white"/>
<circle cx="570.947" cy="459.618" r="2.4753" transform="rotate(180 570.947 459.618)" fill="white"/>
<circle cx="570.947" cy="452.193" r="2.4753" transform="rotate(180 570.947 452.193)" fill="white"/>
<circle cx="570.947" cy="444.767" r="2.4753" transform="rotate(180 570.947 444.767)" fill="white"/>
<circle cx="570.947" cy="437.341" r="2.4753" transform="rotate(180 570.947 437.341)" fill="white"/>
<circle cx="570.947" cy="429.911" r="2.4753" transform="rotate(180 570.947 429.911)" fill="white"/>
<circle cx="570.947" cy="422.486" r="2.4753" transform="rotate(180 570.947 422.486)" fill="white"/>
<circle cx="570.947" cy="415.064" r="2.4753" transform="rotate(180 570.947 415.064)" fill="white"/>
<circle cx="310.44" cy="547.934" r="9.52133" transform="rotate(180 310.44 547.934)" fill="white"/>
<circle cx="310.44" cy="519.371" r="9.52133" transform="rotate(180 310.44 519.371)" fill="white"/>
<circle cx="310.44" cy="490.807" r="9.52133" transform="rotate(180 310.44 490.807)" fill="white"/>
<circle cx="310.44" cy="462.244" r="9.52133" transform="rotate(180 310.44 462.244)" fill="white"/>
<circle cx="310.44" cy="433.678" r="9.52133" transform="rotate(180 310.44 433.678)" fill="white"/>
<circle cx="310.44" cy="405.113" r="9.52133" transform="rotate(180 310.44 405.113)" fill="white"/>
<circle cx="310.44" cy="376.553" r="9.52133" transform="rotate(180 310.44 376.553)" fill="white"/>
<circle cx="310.44" cy="347.975" r="9.52133" transform="rotate(180 310.44 347.975)" fill="white"/>
<circle cx="310.44" cy="319.41" r="9.52133" transform="rotate(180 310.44 319.41)" fill="white"/>
<circle cx="310.44" cy="290.861" r="9.52133" transform="rotate(180 310.44 290.861)" fill="white"/>
<circle cx="277.119" cy="547.934" r="9.52133" transform="rotate(180 277.119 547.934)" fill="white"/>
<circle cx="277.119" cy="519.371" r="9.52133" transform="rotate(180 277.119 519.371)" fill="white"/>
<circle cx="277.119" cy="490.807" r="9.52133" transform="rotate(180 277.119 490.807)" fill="white"/>
<circle cx="277.119" cy="462.244" r="9.52133" transform="rotate(180 277.119 462.244)" fill="white"/>
<circle cx="277.119" cy="433.678" r="9.52133" transform="rotate(180 277.119 433.678)" fill="white"/>
<circle cx="277.119" cy="405.113" r="9.52133" transform="rotate(180 277.119 405.113)" fill="white"/>
<circle cx="277.119" cy="376.553" r="9.52133" transform="rotate(180 277.119 376.553)" fill="white"/>
<circle cx="277.119" cy="347.975" r="9.52133" transform="rotate(180 277.119 347.975)" fill="white"/>
<circle cx="277.119" cy="319.41" r="9.52133" transform="rotate(180 277.119 319.41)" fill="white"/>
<circle cx="277.119" cy="290.861" r="9.52133" transform="rotate(180 277.119 290.861)" fill="white"/>
<circle cx="243.789" cy="547.934" r="9.52133" transform="rotate(180 243.789 547.934)" fill="white"/>
<circle cx="243.789" cy="519.371" r="9.52133" transform="rotate(180 243.789 519.371)" fill="white"/>
<circle cx="243.789" cy="490.807" r="9.52133" transform="rotate(180 243.789 490.807)" fill="white"/>
<circle cx="243.789" cy="462.244" r="9.52133" transform="rotate(180 243.789 462.244)" fill="white"/>
<circle cx="243.789" cy="433.678" r="9.52133" transform="rotate(180 243.789 433.678)" fill="white"/>
<circle cx="243.789" cy="405.113" r="9.52133" transform="rotate(180 243.789 405.113)" fill="white"/>
<circle cx="243.789" cy="376.553" r="9.52133" transform="rotate(180 243.789 376.553)" fill="white"/>
<circle cx="243.789" cy="347.975" r="9.52133" transform="rotate(180 243.789 347.975)" fill="white"/>
<circle cx="243.789" cy="319.41" r="9.52133" transform="rotate(180 243.789 319.41)" fill="white"/>
<circle cx="243.789" cy="290.861" r="9.52133" transform="rotate(180 243.789 290.861)" fill="white"/>
<circle cx="210.471" cy="547.934" r="9.52133" transform="rotate(180 210.471 547.934)" fill="white"/>
<circle cx="210.471" cy="519.371" r="9.52133" transform="rotate(180 210.471 519.371)" fill="white"/>
<circle cx="210.471" cy="490.807" r="9.52133" transform="rotate(180 210.471 490.807)" fill="white"/>
<circle cx="210.471" cy="462.244" r="9.52133" transform="rotate(180 210.471 462.244)" fill="white"/>
<circle cx="210.471" cy="433.678" r="9.52133" transform="rotate(180 210.471 433.678)" fill="white"/>
<circle cx="210.471" cy="405.113" r="9.52133" transform="rotate(180 210.471 405.113)" fill="white"/>
<circle cx="210.471" cy="376.553" r="9.52133" transform="rotate(180 210.471 376.553)" fill="white"/>
<circle cx="210.471" cy="347.975" r="9.52133" transform="rotate(180 210.471 347.975)" fill="white"/>
<circle cx="210.471" cy="319.41" r="9.52133" transform="rotate(180 210.471 319.41)" fill="white"/>
<circle cx="210.471" cy="290.861" r="9.52133" transform="rotate(180 210.471 290.861)" fill="white"/>
<circle cx="177.141" cy="547.934" r="9.52133" transform="rotate(180 177.141 547.934)" fill="white"/>
<circle cx="177.141" cy="519.371" r="9.52133" transform="rotate(180 177.141 519.371)" fill="white"/>
<circle cx="177.141" cy="490.807" r="9.52133" transform="rotate(180 177.141 490.807)" fill="white"/>
<circle cx="177.141" cy="462.244" r="9.52133" transform="rotate(180 177.141 462.244)" fill="white"/>
<circle cx="177.141" cy="433.678" r="9.52133" transform="rotate(180 177.141 433.678)" fill="white"/>
<circle cx="177.141" cy="405.113" r="9.52133" transform="rotate(180 177.141 405.113)" fill="white"/>
<circle cx="177.141" cy="376.553" r="9.52133" transform="rotate(180 177.141 376.553)" fill="white"/>
<circle cx="177.141" cy="347.975" r="9.52133" transform="rotate(180 177.141 347.975)" fill="white"/>
<circle cx="177.141" cy="319.41" r="9.52133" transform="rotate(180 177.141 319.41)" fill="white"/>
<circle cx="177.141" cy="290.861" r="9.52133" transform="rotate(180 177.141 290.861)" fill="white"/>
<circle cx="143.811" cy="547.934" r="9.52133" transform="rotate(180 143.811 547.934)" fill="white"/>
<circle cx="143.811" cy="519.371" r="9.52133" transform="rotate(180 143.811 519.371)" fill="white"/>
<circle cx="143.811" cy="490.807" r="9.52133" transform="rotate(180 143.811 490.807)" fill="white"/>
<circle cx="143.811" cy="462.244" r="9.52133" transform="rotate(180 143.811 462.244)" fill="white"/>
<circle cx="143.811" cy="433.678" r="9.52133" transform="rotate(180 143.811 433.678)" fill="white"/>
<circle cx="143.811" cy="405.113" r="9.52133" transform="rotate(180 143.811 405.113)" fill="white"/>
<circle cx="143.811" cy="376.553" r="9.52133" transform="rotate(180 143.811 376.553)" fill="white"/>
<circle cx="143.811" cy="347.975" r="9.52133" transform="rotate(180 143.811 347.975)" fill="white"/>
<circle cx="143.811" cy="319.41" r="9.52133" transform="rotate(180 143.811 319.41)" fill="white"/>
<circle cx="143.811" cy="290.861" r="9.52133" transform="rotate(180 143.811 290.861)" fill="white"/>
<circle cx="110.481" cy="547.934" r="9.52133" transform="rotate(180 110.481 547.934)" fill="white"/>
<circle cx="110.481" cy="519.371" r="9.52133" transform="rotate(180 110.481 519.371)" fill="white"/>
<circle cx="110.481" cy="490.807" r="9.52133" transform="rotate(180 110.481 490.807)" fill="white"/>
<circle cx="110.481" cy="462.244" r="9.52133" transform="rotate(180 110.481 462.244)" fill="white"/>
<circle cx="110.481" cy="433.678" r="9.52133" transform="rotate(180 110.481 433.678)" fill="white"/>
<circle cx="110.481" cy="405.113" r="9.52133" transform="rotate(180 110.481 405.113)" fill="white"/>
<circle cx="110.481" cy="376.553" r="9.52133" transform="rotate(180 110.481 376.553)" fill="white"/>
<circle cx="110.481" cy="347.975" r="9.52133" transform="rotate(180 110.481 347.975)" fill="white"/>
<circle cx="110.481" cy="319.41" r="9.52133" transform="rotate(180 110.481 319.41)" fill="white"/>
<circle cx="110.481" cy="290.861" r="9.52133" transform="rotate(180 110.481 290.861)" fill="white"/>
<circle cx="77.1818" cy="547.934" r="9.52133" transform="rotate(180 77.1818 547.934)" fill="white"/>
<circle cx="77.1818" cy="519.371" r="9.52133" transform="rotate(180 77.1818 519.371)" fill="white"/>
<circle cx="77.1818" cy="519.371" r="9.52133" transform="rotate(180 77.1818 519.371)" fill="white"/>
<circle cx="77.1818" cy="519.371" r="9.52133" transform="rotate(180 77.1818 519.371)" fill="white"/>
<circle cx="77.1818" cy="519.371" r="9.52133" transform="rotate(180 77.1818 519.371)" fill="white"/>
<circle cx="77.1818" cy="519.371" r="9.52133" transform="rotate(180 77.1818 519.371)" fill="white"/>
<circle cx="77.1818" cy="519.371" r="9.52133" transform="rotate(180 77.1818 519.371)" fill="white"/>
<circle cx="77.1818" cy="490.807" r="9.52133" transform="rotate(180 77.1818 490.807)" fill="white"/>
<circle cx="77.1818" cy="462.244" r="9.52133" transform="rotate(180 77.1818 462.244)" fill="white"/>
<circle cx="77.1818" cy="433.678" r="9.52133" transform="rotate(180 77.1818 433.678)" fill="white"/>
<circle cx="77.1818" cy="405.113" r="9.52133" transform="rotate(180 77.1818 405.113)" fill="white"/>
<circle cx="77.1818" cy="376.553" r="9.52133" transform="rotate(180 77.1818 376.553)" fill="white"/>
<circle cx="77.1818" cy="347.975" r="9.52133" transform="rotate(180 77.1818 347.975)" fill="white"/>
<circle cx="77.1818" cy="319.41" r="9.52133" transform="rotate(180 77.1818 319.41)" fill="white"/>
<circle cx="77.1818" cy="290.861" r="9.52133" transform="rotate(180 77.1818 290.861)" fill="white"/>
<circle cx="43.8517" cy="547.934" r="9.52133" transform="rotate(180 43.8517 547.934)" fill="white"/>
<circle cx="43.8517" cy="519.371" r="9.52133" transform="rotate(180 43.8517 519.371)" fill="white"/>
<circle cx="43.8517" cy="490.807" r="9.52133" transform="rotate(180 43.8517 490.807)" fill="white"/>
<circle cx="43.8517" cy="462.244" r="9.52133" transform="rotate(180 43.8517 462.244)" fill="white"/>
<circle cx="43.8517" cy="433.678" r="9.52133" transform="rotate(180 43.8517 433.678)" fill="white"/>
<circle cx="43.8517" cy="405.113" r="9.52133" transform="rotate(180 43.8517 405.113)" fill="white"/>
<circle cx="43.8517" cy="376.553" r="9.52133" transform="rotate(180 43.8517 376.553)" fill="white"/>
<circle cx="43.8517" cy="347.975" r="9.52133" transform="rotate(180 43.8517 347.975)" fill="white"/>
<circle cx="43.8517" cy="319.41" r="9.52133" transform="rotate(180 43.8517 319.41)" fill="white"/>
<circle cx="43.8517" cy="290.861" r="9.52133" transform="rotate(180 43.8517 290.861)" fill="white"/>
<circle cx="10.4982" cy="547.934" r="9.52133" transform="rotate(180 10.4982 547.934)" fill="white"/>
<circle cx="10.4982" cy="519.371" r="9.52133" transform="rotate(180 10.4982 519.371)" fill="white"/>
<circle cx="10.4982" cy="490.807" r="9.52133" transform="rotate(180 10.4982 490.807)" fill="white"/>
<circle cx="10.4982" cy="462.244" r="9.52133" transform="rotate(180 10.4982 462.244)" fill="white"/>
<circle cx="10.4982" cy="433.678" r="9.52133" transform="rotate(180 10.4982 433.678)" fill="white"/>
<circle cx="10.4982" cy="405.113" r="9.52133" transform="rotate(180 10.4982 405.113)" fill="white"/>
<circle cx="10.4982" cy="376.553" r="9.52133" transform="rotate(180 10.4982 376.553)" fill="white"/>
<circle cx="10.4982" cy="347.975" r="9.52133" transform="rotate(180 10.4982 347.975)" fill="white"/>
<circle cx="10.4982" cy="319.41" r="9.52133" transform="rotate(180 10.4982 319.41)" fill="white"/>
<circle cx="10.4982" cy="290.861" r="9.52133" transform="rotate(180 10.4982 290.861)" fill="white"/>
<circle cx="310.44" cy="266.717" r="9.52133" transform="rotate(180 310.44 266.717)" fill="white"/>
<circle cx="310.44" cy="238.154" r="9.52133" transform="rotate(180 310.44 238.154)" fill="white"/>
<circle cx="310.44" cy="209.59" r="9.52133" transform="rotate(180 310.44 209.59)" fill="white"/>
<circle cx="310.44" cy="181.027" r="9.52133" transform="rotate(180 310.44 181.027)" fill="white"/>
<circle cx="310.44" cy="152.463" r="9.52133" transform="rotate(180 310.44 152.463)" fill="white"/>
<circle cx="310.44" cy="123.901" r="9.52133" transform="rotate(180 310.44 123.901)" fill="white"/>
<circle cx="310.44" cy="95.3361" r="9.52133" transform="rotate(180 310.44 95.3361)" fill="white"/>
<circle cx="310.44" cy="66.758" r="9.52133" transform="rotate(180 310.44 66.758)" fill="white"/>
<circle cx="310.44" cy="38.1935" r="9.52133" transform="rotate(180 310.44 38.1935)" fill="white"/>
<circle cx="310.44" cy="9.64664" r="9.52133" transform="rotate(180 310.44 9.64664)" fill="white"/>
<circle cx="277.119" cy="266.717" r="9.52133" transform="rotate(180 277.119 266.717)" fill="white"/>
<circle cx="277.119" cy="238.154" r="9.52133" transform="rotate(180 277.119 238.154)" fill="white"/>
<circle cx="277.119" cy="209.59" r="9.52133" transform="rotate(180 277.119 209.59)" fill="white"/>
<circle cx="277.119" cy="181.027" r="9.52133" transform="rotate(180 277.119 181.027)" fill="white"/>
<circle cx="277.119" cy="152.463" r="9.52133" transform="rotate(180 277.119 152.463)" fill="white"/>
<circle cx="277.119" cy="123.901" r="9.52133" transform="rotate(180 277.119 123.901)" fill="white"/>
<circle cx="277.119" cy="95.3361" r="9.52133" transform="rotate(180 277.119 95.3361)" fill="white"/>
<circle cx="277.119" cy="66.758" r="9.52133" transform="rotate(180 277.119 66.758)" fill="white"/>
<circle cx="277.119" cy="38.1935" r="9.52133" transform="rotate(180 277.119 38.1935)" fill="white"/>
<circle cx="277.119" cy="9.64664" r="9.52133" transform="rotate(180 277.119 9.64664)" fill="white"/>
<circle cx="243.789" cy="266.717" r="9.52133" transform="rotate(180 243.789 266.717)" fill="white"/>
<circle cx="243.789" cy="238.154" r="9.52133" transform="rotate(180 243.789 238.154)" fill="white"/>
<circle cx="243.789" cy="209.59" r="9.52133" transform="rotate(180 243.789 209.59)" fill="white"/>
<circle cx="243.789" cy="181.027" r="9.52133" transform="rotate(180 243.789 181.027)" fill="white"/>
<circle cx="243.789" cy="152.463" r="9.52133" transform="rotate(180 243.789 152.463)" fill="white"/>
<circle cx="243.789" cy="123.901" r="9.52133" transform="rotate(180 243.789 123.901)" fill="white"/>
<circle cx="243.789" cy="95.3361" r="9.52133" transform="rotate(180 243.789 95.3361)" fill="white"/>
<circle cx="243.789" cy="66.758" r="9.52133" transform="rotate(180 243.789 66.758)" fill="white"/>
<circle cx="243.789" cy="38.1935" r="9.52133" transform="rotate(180 243.789 38.1935)" fill="white"/>
<circle cx="243.789" cy="9.64664" r="9.52133" transform="rotate(180 243.789 9.64664)" fill="white"/>
<circle cx="210.471" cy="266.717" r="9.52133" transform="rotate(180 210.471 266.717)" fill="white"/>
<circle cx="210.471" cy="238.154" r="9.52133" transform="rotate(180 210.471 238.154)" fill="white"/>
<circle cx="210.471" cy="209.59" r="9.52133" transform="rotate(180 210.471 209.59)" fill="white"/>
<circle cx="210.471" cy="181.027" r="9.52133" transform="rotate(180 210.471 181.027)" fill="white"/>
<circle cx="210.471" cy="152.463" r="9.52133" transform="rotate(180 210.471 152.463)" fill="white"/>
<circle cx="210.471" cy="123.901" r="9.52133" transform="rotate(180 210.471 123.901)" fill="white"/>
<circle cx="210.471" cy="95.3361" r="9.52133" transform="rotate(180 210.471 95.3361)" fill="white"/>
<circle cx="210.471" cy="66.758" r="9.52133" transform="rotate(180 210.471 66.758)" fill="white"/>
<circle cx="210.471" cy="38.1935" r="9.52133" transform="rotate(180 210.471 38.1935)" fill="white"/>
<circle cx="210.471" cy="9.64664" r="9.52133" transform="rotate(180 210.471 9.64664)" fill="white"/>
<circle cx="177.141" cy="266.717" r="9.52133" transform="rotate(180 177.141 266.717)" fill="white"/>
<circle cx="177.141" cy="238.154" r="9.52133" transform="rotate(180 177.141 238.154)" fill="white"/>
<circle cx="177.141" cy="209.59" r="9.52133" transform="rotate(180 177.141 209.59)" fill="white"/>
<circle cx="177.141" cy="181.027" r="9.52133" transform="rotate(180 177.141 181.027)" fill="white"/>
<circle cx="177.141" cy="152.463" r="9.52133" transform="rotate(180 177.141 152.463)" fill="white"/>
<circle cx="177.141" cy="123.901" r="9.52133" transform="rotate(180 177.141 123.901)" fill="white"/>
<circle cx="177.141" cy="95.3361" r="9.52133" transform="rotate(180 177.141 95.3361)" fill="white"/>
<circle cx="177.141" cy="66.758" r="9.52133" transform="rotate(180 177.141 66.758)" fill="white"/>
<circle cx="177.141" cy="38.1935" r="9.52133" transform="rotate(180 177.141 38.1935)" fill="white"/>
<circle cx="177.141" cy="9.64664" r="9.52133" transform="rotate(180 177.141 9.64664)" fill="white"/>
<circle cx="143.811" cy="266.717" r="9.52133" transform="rotate(180 143.811 266.717)" fill="white"/>
<circle cx="143.811" cy="238.154" r="9.52133" transform="rotate(180 143.811 238.154)" fill="white"/>
<circle cx="143.811" cy="209.59" r="9.52133" transform="rotate(180 143.811 209.59)" fill="white"/>
<circle cx="143.811" cy="181.027" r="9.52133" transform="rotate(180 143.811 181.027)" fill="white"/>
<circle cx="143.811" cy="152.463" r="9.52133" transform="rotate(180 143.811 152.463)" fill="white"/>
<circle cx="143.811" cy="123.901" r="9.52133" transform="rotate(180 143.811 123.901)" fill="white"/>
<circle cx="143.811" cy="95.3361" r="9.52133" transform="rotate(180 143.811 95.3361)" fill="white"/>
<circle cx="143.811" cy="66.758" r="9.52133" transform="rotate(180 143.811 66.758)" fill="white"/>
<circle cx="143.811" cy="38.1935" r="9.52133" transform="rotate(180 143.811 38.1935)" fill="white"/>
<circle cx="143.811" cy="9.64664" r="9.52133" transform="rotate(180 143.811 9.64664)" fill="white"/>
<circle cx="110.481" cy="266.717" r="9.52133" transform="rotate(180 110.481 266.717)" fill="white"/>
<circle cx="110.481" cy="238.154" r="9.52133" transform="rotate(180 110.481 238.154)" fill="white"/>
<circle cx="110.481" cy="209.59" r="9.52133" transform="rotate(180 110.481 209.59)" fill="white"/>
<circle cx="110.481" cy="181.027" r="9.52133" transform="rotate(180 110.481 181.027)" fill="white"/>
<circle cx="110.481" cy="152.463" r="9.52133" transform="rotate(180 110.481 152.463)" fill="white"/>
<circle cx="110.481" cy="123.901" r="9.52133" transform="rotate(180 110.481 123.901)" fill="white"/>
<circle cx="110.481" cy="95.3361" r="9.52133" transform="rotate(180 110.481 95.3361)" fill="white"/>
<circle cx="110.481" cy="66.758" r="9.52133" transform="rotate(180 110.481 66.758)" fill="white"/>
<circle cx="110.481" cy="38.1935" r="9.52133" transform="rotate(180 110.481 38.1935)" fill="white"/>
<circle cx="110.481" cy="9.64664" r="9.52133" transform="rotate(180 110.481 9.64664)" fill="white"/>
<circle cx="77.1818" cy="266.717" r="9.52133" transform="rotate(180 77.1818 266.717)" fill="white"/>
<circle cx="77.1818" cy="238.154" r="9.52133" transform="rotate(180 77.1818 238.154)" fill="white"/>
<circle cx="77.1818" cy="238.154" r="9.52133" transform="rotate(180 77.1818 238.154)" fill="white"/>
<circle cx="77.1818" cy="238.154" r="9.52133" transform="rotate(180 77.1818 238.154)" fill="white"/>
<circle cx="77.1818" cy="238.154" r="9.52133" transform="rotate(180 77.1818 238.154)" fill="white"/>
<circle cx="77.1818" cy="238.154" r="9.52133" transform="rotate(180 77.1818 238.154)" fill="white"/>
<circle cx="77.1818" cy="238.154" r="9.52133" transform="rotate(180 77.1818 238.154)" fill="white"/>
<circle cx="77.1818" cy="209.59" r="9.52133" transform="rotate(180 77.1818 209.59)" fill="white"/>
<circle cx="77.1818" cy="181.027" r="9.52133" transform="rotate(180 77.1818 181.027)" fill="white"/>
<circle cx="77.1818" cy="152.463" r="9.52133" transform="rotate(180 77.1818 152.463)" fill="white"/>
<circle cx="77.1818" cy="123.901" r="9.52133" transform="rotate(180 77.1818 123.901)" fill="white"/>
<circle cx="77.1818" cy="95.3361" r="9.52133" transform="rotate(180 77.1818 95.3361)" fill="white"/>
<circle cx="77.1818" cy="66.758" r="9.52133" transform="rotate(180 77.1818 66.758)" fill="white"/>
<circle cx="77.1818" cy="38.1935" r="9.52133" transform="rotate(180 77.1818 38.1935)" fill="white"/>
<circle cx="77.1818" cy="9.64664" r="9.52133" transform="rotate(180 77.1818 9.64664)" fill="white"/>
<circle cx="43.8517" cy="266.717" r="9.52133" transform="rotate(180 43.8517 266.717)" fill="white"/>
<circle cx="43.8517" cy="238.154" r="9.52133" transform="rotate(180 43.8517 238.154)" fill="white"/>
<circle cx="43.8517" cy="209.59" r="9.52133" transform="rotate(180 43.8517 209.59)" fill="white"/>
<circle cx="43.8517" cy="181.027" r="9.52133" transform="rotate(180 43.8517 181.027)" fill="white"/>
<circle cx="43.8517" cy="152.463" r="9.52133" transform="rotate(180 43.8517 152.463)" fill="white"/>
<circle cx="43.8517" cy="123.901" r="9.52133" transform="rotate(180 43.8517 123.901)" fill="white"/>
<circle cx="43.8517" cy="95.3361" r="9.52133" transform="rotate(180 43.8517 95.3361)" fill="white"/>
<circle cx="43.8517" cy="66.758" r="9.52133" transform="rotate(180 43.8517 66.758)" fill="white"/>
<circle cx="43.8517" cy="38.1935" r="9.52133" transform="rotate(180 43.8517 38.1935)" fill="white"/>
<circle cx="43.8517" cy="9.64664" r="9.52133" transform="rotate(180 43.8517 9.64664)" fill="white"/>
<circle cx="10.4982" cy="266.717" r="9.52133" transform="rotate(180 10.4982 266.717)" fill="white"/>
<circle cx="10.4982" cy="238.154" r="9.52133" transform="rotate(180 10.4982 238.154)" fill="white"/>
<circle cx="10.4982" cy="209.59" r="9.52133" transform="rotate(180 10.4982 209.59)" fill="white"/>
<circle cx="10.4982" cy="181.027" r="9.52133" transform="rotate(180 10.4982 181.027)" fill="white"/>
<circle cx="10.4982" cy="152.463" r="9.52133" transform="rotate(180 10.4982 152.463)" fill="white"/>
<circle cx="10.4982" cy="123.901" r="9.52133" transform="rotate(180 10.4982 123.901)" fill="white"/>
<circle cx="10.4982" cy="95.3361" r="9.52133" transform="rotate(180 10.4982 95.3361)" fill="white"/>
<circle cx="10.4982" cy="66.758" r="9.52133" transform="rotate(180 10.4982 66.758)" fill="white"/>
<circle cx="10.4982" cy="38.1935" r="9.52133" transform="rotate(180 10.4982 38.1935)" fill="white"/>
<circle cx="10.4982" cy="9.64664" r="9.52133" transform="rotate(180 10.4982 9.64664)" fill="white"/>
</mask>
<g mask="url(#mask0_1955_6566)">
<circle cx="331.364" cy="278.54" r="278.036" transform="rotate(180 331.364 278.54)" fill="url(#paint0_radial_1955_6566)"/>
</g>
</g>
<defs>
<radialGradient id="paint0_radial_1955_6566" cx="0" cy="0" r="1" gradientUnits="userSpaceOnUse" gradientTransform="translate(331.364 278.54) rotate(90) scale(278.036)">
<stop stop-color="#2AA7FF"/>
<stop offset="1" stop-color="#2AA7FF" stop-opacity="0"/>
</radialGradient>
</defs>
</svg>
